<svg width="1920" height="1313" viewBox="0 0 1920 1313" fill="none" xmlns="http://www.w3.org/2000/svg">
<g clip-path="url(#clip0)">
<rect width="1920" height="1312.97" fill="white"/>
<path d="M105.638 73.5161C62.851 86.76 0 118.253 0 118.253V1295.49C0 1295.49 163.308 1317.74 276.36 1312.08C475.326 1302.1 572.825 1187.22 772.005 1190.93C943.448 1194.13 1027.14 1299.83 1198.56 1295.49C1335.66 1292.02 1403.26 1202.56 1540.01 1213.05C1655.55 1221.92 1703.38 1299.85 1819.19 1295.49C1858.79 1294 1920 1253.68 1920 1253.68V28.7791C1920 28.7791 1835.22 4.33341 1779.32 0.630007C1625.48 -9.56177 1556.1 107.116 1402.33 118.253C1243.38 129.765 1158.59 37.2602 999.802 50.8963C849.244 63.8258 783.023 157.442 632.824 174.049C424.524 197.079 305.896 11.5288 105.638 73.5161Z" fill="url(#paint0_linear)"/>
<path opacity="0.8" d="M1020.74 858.737L1012.27 877.37C1006.76 889.509 1011.73 903.848 1023.6 909.953L1028.39 912.413L1023.47 910.234C1011.27 904.835 996.985 909.963 991.009 921.884L981.83 940.179L990.294 921.546C995.809 909.406 990.834 895.067 978.969 888.963L974.18 886.503L979.1 888.681C991.299 894.081 1005.58 888.952 1011.56 877.032L1020.74 858.737Z" fill="white"/>
<path opacity="0.8" d="M1816.77 418.537L1808.31 437.17C1802.8 449.31 1807.77 463.649 1819.64 469.753L1824.42 472.213L1819.5 470.034C1807.3 464.635 1793.02 469.764 1787.04 481.684L1777.86 499.979L1786.33 481.346C1791.84 469.207 1786.87 454.868 1775 448.763L1770.22 446.303L1775.13 448.482C1787.33 453.881 1801.62 448.753 1807.6 436.832L1816.77 418.537Z" fill="white"/>
<path opacity="0.8" d="M735.774 173.537L727.31 192.17C721.795 204.31 726.77 218.649 738.636 224.753L743.424 227.213L738.505 225.034C726.305 219.635 712.02 224.764 706.044 236.684L696.865 254.979L705.329 236.346C710.844 224.207 705.869 209.868 694.004 203.763L689.215 201.303L694.135 203.482C706.334 208.881 720.62 203.753 726.595 191.832L735.774 173.537Z" fill="white"/>
<path opacity="0.8" d="M984.784 809.092L981.07 817.27C978.652 822.599 980.837 828.883 986.042 831.565L988.136 832.645L985.978 831.69C980.626 829.326 974.359 831.574 971.732 836.802L967.705 844.825L971.418 836.646C973.837 831.318 971.651 825.033 966.446 822.352L964.352 821.272L966.511 822.227C971.862 824.591 978.13 822.343 980.756 817.114L984.784 809.092Z" fill="#FFF98D"/>
<path opacity="0.8" d="M1051.88 876.515L1050 880.66C1048.77 883.354 1049.87 886.545 1052.51 887.901L1053.57 888.452L1052.48 887.962C1049.77 886.762 1046.59 887.902 1045.26 890.553L1043.21 894.618L1045.09 890.473C1046.32 887.779 1045.22 884.588 1042.58 883.231L1041.52 882.681L1042.62 883.171C1045.32 884.371 1048.51 883.231 1049.83 880.58L1051.88 876.515Z" fill="white"/>
<path opacity="0.8" d="M1066.56 940.286L1063.36 947.305C1061.28 951.887 1063.16 957.289 1067.62 959.589L1069.43 960.512L1067.57 959.687C1062.97 957.654 1057.59 959.585 1055.33 964.079L1051.87 970.975L1055.06 963.952C1057.14 959.37 1055.26 953.967 1050.79 951.667L1048.99 950.744L1050.85 951.57C1055.45 953.602 1060.83 951.672 1063.09 947.177L1066.56 940.286Z" fill="#FFF98D"/>
<path opacity="0.8" d="M1050.89 901.532C1050.3 902.778 1048.81 903.306 1047.56 902.717C1046.31 902.12 1045.79 900.633 1046.38 899.374C1046.98 898.129 1048.46 897.601 1049.72 898.193C1050.97 898.791 1051.49 900.278 1050.89 901.532Z" fill="white"/>
<path opacity="0.8" d="M1111.99 940.22C1110.55 943.236 1106.94 944.519 1103.91 943.073C1100.9 941.632 1099.61 938.017 1101.06 934.992C1102.5 931.976 1106.12 930.693 1109.14 932.138C1112.16 933.58 1113.44 937.204 1111.99 940.22Z" fill="#FFF98D"/>
<path opacity="0.8" d="M1798.77 -0.462562L1790.31 18.1702C1784.8 30.3096 1789.77 44.6487 1801.64 50.7534L1806.42 53.2133L1801.5 51.0345C1789.3 45.6352 1775.02 50.7636 1769.04 62.6841L1759.86 80.9788L1768.33 62.3461C1773.84 50.2066 1768.87 35.8676 1757 29.7629L1752.22 27.3029L1757.13 29.4818C1769.33 34.881 1783.62 29.7527 1789.6 17.8321L1798.77 -0.462562Z" fill="white"/>
<path opacity="0.8" d="M1890.03 81.0205C1888.59 84.0367 1884.97 85.3191 1881.95 83.8738C1878.93 82.4323 1877.65 78.8174 1879.09 75.792C1880.54 72.7758 1884.15 71.4934 1887.18 72.9387C1890.19 74.3802 1891.47 78.0043 1890.03 81.0205Z" fill="#FFF98D"/>
<path opacity="0.8" d="M938.437 919.436C938.138 920.059 937.393 920.328 936.77 920.029C936.147 919.73 935.879 918.985 936.177 918.362C936.476 917.739 937.222 917.471 937.844 917.769C938.48 918.063 938.736 918.814 938.437 919.436Z" fill="white"/>
<path opacity="0.8" d="M1075.76 950.192C1075.46 950.814 1074.72 951.083 1074.09 950.784C1073.47 950.485 1073.2 949.74 1073.5 949.117C1073.8 948.495 1074.55 948.226 1075.17 948.525C1075.79 948.823 1076.06 949.569 1075.76 950.192Z" fill="white"/>
<path opacity="0.8" d="M994.496 865.453C994.197 866.076 993.451 866.344 992.829 866.045C992.206 865.747 991.937 865.001 992.236 864.378C992.535 863.756 993.28 863.487 993.903 863.786C994.53 864.076 994.794 864.83 994.496 865.453Z" fill="white"/>
<path opacity="0.8" d="M1120.88 993.294C1120.58 993.916 1119.84 994.185 1119.22 993.886C1118.59 993.588 1118.32 992.842 1118.62 992.219C1118.92 991.597 1119.67 991.328 1120.29 991.627C1120.91 991.926 1121.18 992.671 1120.88 993.294Z" fill="white"/>
<path opacity="0.8" d="M1095.31 863.576C1095.01 864.199 1094.27 864.468 1093.64 864.169C1093.02 863.87 1092.75 863.125 1093.05 862.502C1093.35 861.879 1094.1 861.611 1094.72 861.909C1095.34 862.208 1095.61 862.954 1095.31 863.576Z" fill="white"/>
<path opacity="0.8" d="M1120.02 814.79C1119.72 815.413 1118.97 815.681 1118.35 815.382C1117.73 815.084 1117.46 814.338 1117.76 813.715C1118.06 813.093 1118.8 812.824 1119.43 813.123C1120.05 813.422 1120.32 814.167 1120.02 814.79Z" fill="white"/>
<path opacity="0.8" d="M1045.67 836.767C1045.37 837.39 1044.62 837.658 1044 837.359C1043.38 837.061 1043.11 836.315 1043.41 835.692C1043.71 835.07 1044.45 834.801 1045.07 835.1C1045.71 835.403 1045.97 836.144 1045.67 836.767Z" fill="white"/>
<path opacity="0.8" d="M791.119 870.502L787.406 878.681C784.988 884.009 787.173 890.294 792.378 892.976L794.472 894.055L792.314 893.1C786.962 890.737 780.695 892.984 778.068 898.213L774.041 906.236L777.754 898.057C780.173 892.729 777.987 886.444 772.782 883.762L770.688 882.683L772.847 883.638C778.198 886.001 784.466 883.754 787.092 878.525L791.119 870.502Z" fill="#FFF98D"/>
<path opacity="0.8" d="M858.212 937.926L856.332 942.07C855.104 944.765 856.209 947.956 858.848 949.312L859.907 949.862L858.812 949.372C856.106 948.172 852.921 949.313 851.592 951.964L849.551 956.028L851.431 951.884C852.658 949.189 851.554 945.998 848.914 944.642L847.856 944.091L848.951 944.581C851.657 945.782 854.842 944.641 856.17 941.99L858.212 937.926Z" fill="white"/>
<path opacity="0.8" d="M872.891 1001.7L869.696 1008.72C867.618 1013.3 869.495 1018.7 873.961 1021L875.763 1021.92L873.908 1021.1C869.307 1019.07 863.925 1021 861.667 1025.49L858.208 1032.39L861.395 1025.36C863.473 1020.78 861.595 1015.38 857.13 1013.08L855.328 1012.16L857.182 1012.98C861.784 1015.01 867.166 1013.08 869.424 1008.59L872.891 1001.7Z" fill="#FFF98D"/>
<path opacity="0.8" d="M857.229 962.942C856.631 964.188 855.144 964.716 853.895 964.127C852.65 963.53 852.122 962.043 852.714 960.784C853.311 959.539 854.799 959.011 856.057 959.603C857.302 960.201 857.83 961.688 857.229 962.942Z" fill="white"/>
<path opacity="0.8" d="M918.33 1001.63C916.889 1004.65 913.274 1005.93 910.248 1004.48C907.232 1003.04 905.95 999.428 907.395 996.402C908.837 993.386 912.452 992.104 915.477 993.549C918.493 994.991 919.772 998.615 918.33 1001.63Z" fill="#FFF98D"/>
<path opacity="0.8" d="M744.773 980.847C744.474 981.469 743.729 981.738 743.106 981.439C742.483 981.14 742.215 980.395 742.513 979.772C742.812 979.149 743.558 978.881 744.18 979.179C744.816 979.473 745.072 980.224 744.773 980.847Z" fill="white"/>
<path opacity="0.8" d="M882.097 1011.6C881.798 1012.23 881.053 1012.49 880.43 1012.19C879.807 1011.9 879.539 1011.15 879.838 1010.53C880.136 1009.91 880.882 1009.64 881.505 1009.94C882.127 1010.23 882.396 1010.98 882.097 1011.6Z" fill="white"/>
<path opacity="0.8" d="M800.831 926.864C800.533 927.486 799.787 927.755 799.164 927.456C798.542 927.157 798.273 926.412 798.572 925.789C798.871 925.166 799.616 924.898 800.239 925.197C800.866 925.486 801.13 926.241 800.831 926.864Z" fill="white"/>
<path opacity="0.8" d="M927.218 1054.7C926.919 1055.33 926.174 1055.6 925.551 1055.3C924.929 1055 924.66 1054.25 924.959 1053.63C925.257 1053.01 926.003 1052.74 926.626 1053.04C927.248 1053.34 927.517 1054.08 927.218 1054.7Z" fill="white"/>
<path opacity="0.8" d="M901.648 924.987C901.349 925.61 900.604 925.878 899.981 925.58C899.358 925.281 899.09 924.535 899.388 923.913C899.687 923.29 900.433 923.021 901.055 923.32C901.678 923.619 901.947 924.364 901.648 924.987Z" fill="white"/>
<path opacity="0.8" d="M926.355 876.201C926.056 876.824 925.311 877.092 924.688 876.793C924.065 876.495 923.797 875.749 924.095 875.126C924.394 874.504 925.14 874.235 925.762 874.534C926.385 874.833 926.654 875.578 926.355 876.201Z" fill="white"/>
<path opacity="0.8" d="M852.003 898.178C851.705 898.8 850.959 899.069 850.336 898.77C849.714 898.471 849.445 897.726 849.744 897.103C850.043 896.48 850.788 896.212 851.411 896.511C852.043 896.813 852.302 897.555 852.003 898.178Z" fill="white"/>
<g opacity="0.6">
<path opacity="0.8" d="M1906.32 514.11L1897.58 516.214C1891.89 517.585 1888.28 523.174 1889.37 528.927L1889.81 531.243L1889.23 528.953C1887.8 523.28 1882.18 519.721 1876.44 520.867L1867.64 522.627L1876.37 520.523C1882.06 519.153 1885.67 513.563 1884.58 507.81L1884.14 505.495L1884.72 507.784C1886.15 513.457 1891.77 517.016 1897.51 515.871L1906.32 514.11Z" fill="#FFF98D"/>
<path opacity="0.8" d="M1894.43 608.482L1890.01 609.55C1887.13 610.239 1885.29 613.073 1885.84 615.988L1886.06 617.162L1885.77 615.996C1885.05 613.125 1882.2 611.315 1879.29 611.899L1874.83 612.789L1879.25 611.722C1882.13 611.033 1883.97 608.199 1883.41 605.283L1883.2 604.11L1883.48 605.275C1884.2 608.147 1887.06 609.956 1889.97 609.373L1894.43 608.482Z" fill="white"/>
<path opacity="0.8" d="M1853.18 659.284L1845.68 661.082C1840.79 662.262 1837.69 667.066 1838.62 672.002L1839 673.99L1838.51 672.02C1837.28 667.142 1832.45 664.086 1827.52 665.071L1819.95 666.586L1827.45 664.778C1832.34 663.598 1835.45 658.794 1834.51 653.859L1834.13 651.87L1834.62 653.84C1835.85 658.718 1840.68 661.774 1845.61 660.789L1853.18 659.284Z" fill="#FFF98D"/>
<path opacity="0.8" d="M1874.1 623.097C1872.75 623.392 1871.42 622.544 1871.11 621.197C1870.82 619.847 1871.67 618.516 1873.02 618.209C1874.37 617.914 1875.7 618.762 1876.01 620.118C1876.31 621.468 1875.46 622.799 1874.1 623.097Z" fill="white"/>
<path opacity="0.8" d="M1881.18 695.068C1877.92 695.787 1874.69 693.726 1873.96 690.452C1873.24 687.187 1875.31 683.952 1878.58 683.231C1881.85 682.512 1885.08 684.573 1885.8 687.847C1886.52 691.112 1884.45 694.349 1881.18 695.068Z" fill="#FFF98D"/>
<path opacity="0.8" d="M1790.81 545.448C1790.13 545.596 1789.46 545.173 1789.32 544.498C1789.17 543.824 1789.59 543.153 1790.26 543.006C1790.94 542.858 1791.61 543.281 1791.76 543.955C1791.92 544.637 1791.48 545.301 1790.81 545.448Z" fill="white"/>
<path opacity="0.8" d="M1851.03 672.636C1850.36 672.783 1849.69 672.36 1849.54 671.686C1849.39 671.011 1849.82 670.341 1850.49 670.193C1851.17 670.046 1851.84 670.468 1851.98 671.143C1852.13 671.818 1851.71 672.488 1851.03 672.636Z" fill="white"/>
<path opacity="0.8" d="M1867.85 556.438C1867.18 556.585 1866.51 556.163 1866.36 555.488C1866.21 554.813 1866.64 554.143 1867.31 553.995C1867.99 553.848 1868.66 554.271 1868.8 554.945C1868.96 555.617 1868.53 556.29 1867.85 556.438Z" fill="white"/>
<path opacity="0.8" d="M1844.81 734.723C1844.13 734.871 1843.46 734.448 1843.32 733.774C1843.17 733.099 1843.59 732.429 1844.26 732.281C1844.94 732.134 1845.61 732.556 1845.76 733.231C1845.9 733.906 1845.48 734.576 1844.81 734.723Z" fill="white"/>
</g>
<g clip-path="url(#clip1)">
<path d="M144.772 98.8911L148.746 116.592C151.335 128.133 146.237 139.191 137.168 141.732L133.508 142.76L137.235 142.003C146.471 140.132 156.036 147.669 158.976 159.124L163.492 176.692L159.518 158.991C156.928 147.45 162.027 136.393 171.096 133.851L174.76 132.832L171.034 133.589C161.806 135.455 152.233 127.923 149.293 116.468L144.772 98.8911Z" fill="#FFF98D"/>
<path d="M140.967 323.345L144.084 329.242C146.12 333.087 144.993 337.724 141.525 339.784L140.132 340.613L141.573 339.872C145.164 338.041 149.684 339.561 151.846 343.325L155.175 349.109L152.058 343.212C150.022 339.367 151.149 334.729 154.617 332.669L156.01 331.84L154.57 332.581C150.978 334.412 146.458 332.893 144.296 329.128L140.967 323.345Z" fill="white"/>
<path d="M76.8344 300.718L79.9516 306.615C81.9869 310.46 80.8604 315.098 77.3924 317.158L75.9991 317.987L77.4398 317.246C81.0311 315.415 85.551 316.934 87.7136 320.699L91.0421 326.482L87.9249 320.585C85.8897 316.741 87.0161 312.103 90.4842 310.043L91.8775 309.214L90.4368 309.955C86.8455 311.786 82.3256 310.266 80.163 306.502L76.8344 300.718Z" fill="white"/>
<path d="M171.262 278.035C173.415 281.93 178.083 283.471 181.692 281.483C185.301 279.495 186.49 274.721 184.333 270.818C182.179 266.923 177.511 265.382 173.902 267.369C170.298 269.366 169.109 274.14 171.262 278.035Z" fill="#FFF98D"/>
</g>
<g clip-path="url(#clip2)">
<path d="M162.772 476.891L166.746 494.592C169.335 506.133 164.237 517.191 155.168 519.732L151.508 520.76L155.235 520.003C164.471 518.132 174.036 525.669 176.976 537.124L181.492 554.692L177.518 536.991C174.928 525.45 180.027 514.393 189.096 511.851L192.76 510.832L189.034 511.589C179.806 513.455 170.233 505.923 167.293 494.468L162.772 476.891Z" fill="#FFF98D"/>
<path d="M158.967 701.345L162.084 707.242C164.12 711.087 162.993 715.724 159.525 717.784L158.132 718.613L159.573 717.872C163.164 716.041 167.684 717.561 169.846 721.325L173.175 727.109L170.058 721.212C168.022 717.367 169.149 712.729 172.617 710.669L174.01 709.84L172.57 710.581C168.978 712.412 164.458 710.893 162.296 707.128L158.967 701.345Z" fill="white"/>
<path d="M94.8344 678.718L97.9516 684.615C99.9869 688.46 98.8604 693.098 95.3924 695.158L93.9991 695.987L95.4398 695.246C99.0311 693.415 103.551 694.934 105.714 698.699L109.042 704.482L105.925 698.585C103.89 694.741 105.016 690.103 108.484 688.043L109.878 687.214L108.437 687.955C104.846 689.786 100.326 688.266 98.163 684.502L94.8344 678.718Z" fill="white"/>
<path d="M189.262 656.035C191.415 659.93 196.083 661.471 199.692 659.483C203.301 657.495 204.49 652.721 202.333 648.818C200.179 644.923 195.511 643.382 191.902 645.369C188.298 647.366 187.109 652.14 189.262 656.035Z" fill="#FFF98D"/>
</g>
<g clip-path="url(#clip3)">
<path d="M295.244 1092.88L280.666 1103.68C271.161 1110.72 258.986 1110.53 252.991 1103.27L250.57 1100.34L252.77 1103.44C258.22 1111.13 255.2 1122.93 245.915 1130.25L231.679 1141.49L246.256 1130.69C255.761 1123.65 267.936 1123.84 273.931 1131.1L276.346 1134.04L274.146 1130.94C268.704 1123.26 271.717 1111.46 281.001 1104.13L295.244 1092.88Z" fill="#FFF98D"/>
<path d="M88.4601 1180.26L84.3296 1185.49C81.6378 1188.91 76.941 1189.76 73.6537 1187.42L72.3313 1186.48L73.5924 1187.5C76.7202 1190.04 77.1605 1194.79 74.5933 1198.29L70.6524 1203.68L74.7829 1198.44C77.4747 1195.02 82.1715 1194.17 85.4588 1196.51L86.7812 1197.45L85.5201 1196.43C82.3923 1193.89 81.952 1189.14 84.5191 1185.64L88.4601 1180.26Z" fill="white"/>
<path d="M83.1906 1112.45L79.0601 1117.69C76.3683 1121.11 71.6714 1121.95 68.3842 1119.62L67.0618 1118.68L68.3229 1119.7C71.4506 1122.24 71.891 1126.99 69.3238 1130.49L65.3829 1135.87L69.5134 1130.64C72.2051 1127.22 76.902 1126.37 80.1892 1128.71L81.5117 1129.65L80.2506 1128.63C77.1228 1126.09 76.6825 1121.34 79.2496 1117.84L83.1906 1112.45Z" fill="white"/>
<path d="M142.152 1189.62C139.462 1193.16 139.942 1198.06 143.221 1200.55C146.499 1203.05 151.346 1202.2 154.042 1198.65C156.732 1195.1 156.252 1190.21 152.974 1187.71C149.689 1185.23 144.842 1186.07 142.152 1189.62Z" fill="#FFF98D"/>
</g>
<g clip-path="url(#clip4)">
<path d="M286.264 1264.12L275.124 1249.8C267.862 1240.46 267.76 1228.29 274.88 1222.12L277.753 1219.63L274.705 1221.91C267.147 1227.54 255.282 1224.8 247.739 1215.69L236.166 1201.72L247.306 1216.04C254.568 1225.38 254.669 1237.55 247.549 1243.72L244.668 1246.2L247.717 1243.93C255.269 1238.3 267.14 1241.04 274.682 1250.15L286.264 1264.12Z" fill="#FFF98D"/>
<path d="M194.024 1059.46L188.691 1055.45C185.211 1052.84 184.253 1048.17 186.512 1044.82L187.419 1043.48L186.431 1044.77C183.963 1047.95 179.227 1048.5 175.666 1046.02L170.19 1042.21L175.523 1046.21C179.003 1048.82 179.961 1053.5 177.702 1056.84L176.795 1058.19L177.782 1056.9C180.251 1053.71 184.987 1053.16 188.548 1055.65L194.024 1059.46Z" fill="white"/>
<path d="M261.684 1052.59L256.351 1048.58C252.871 1045.97 251.913 1041.29 254.172 1037.95L255.079 1036.61L254.092 1037.89C251.623 1041.08 246.887 1041.63 243.326 1039.15L237.85 1035.34L243.183 1039.34C246.663 1041.95 247.621 1046.63 245.362 1049.97L244.455 1051.31L245.443 1050.03C247.911 1046.84 252.647 1046.29 256.208 1048.77L261.684 1052.59Z" fill="white"/>
<path d="M185.936 1113.36C182.328 1110.75 177.448 1111.35 175.031 1114.69C172.614 1118.02 173.573 1122.85 177.189 1125.46C180.797 1128.06 185.677 1127.47 188.094 1124.13C190.503 1120.79 189.544 1115.96 185.936 1113.36Z" fill="#FFF98D"/>
</g>
<g clip-path="url(#clip5)">
<path d="M603.921 1045.64L586.6 1051.04C575.306 1054.55 563.872 1050.36 560.605 1041.53L559.285 1037.96L560.34 1041.62C562.953 1050.67 556.214 1060.82 545.035 1064.67L527.89 1070.6L545.211 1065.2C556.505 1061.69 567.939 1065.87 571.206 1074.71L572.518 1078.28L571.462 1074.63C568.855 1065.58 575.588 1055.43 586.767 1051.57L603.921 1045.64Z" fill="#FFF98D"/>
<path d="M379.894 1060.01L374.268 1063.6C370.601 1065.94 365.887 1065.19 363.554 1061.9L362.614 1060.58L363.47 1061.95C365.585 1065.38 364.437 1070.01 360.859 1072.47L355.364 1076.26L360.99 1072.67C364.657 1070.33 369.371 1071.08 371.704 1074.37L372.644 1075.69L371.788 1074.32C369.673 1070.89 370.822 1066.26 374.399 1063.8L379.894 1060.01Z" fill="white"/>
<path d="M397.257 994.258L391.632 997.842C387.964 1000.18 383.251 999.434 380.917 996.144L379.978 994.822L380.833 996.198C382.948 999.63 381.8 1004.26 378.223 1006.72L372.728 1010.5L378.353 1006.92C382.02 1004.58 386.734 1005.33 389.068 1008.62L390.007 1009.94L389.152 1008.56C387.036 1005.13 388.185 1000.5 391.762 998.043L397.257 994.258Z" fill="white"/>
<path d="M427.508 1086.54C423.8 1089 422.641 1093.78 424.915 1097.22C427.188 1100.65 432.043 1101.45 435.759 1098.98C439.466 1096.52 440.625 1091.75 438.352 1088.31C436.07 1084.88 431.216 1084.08 427.508 1086.54Z" fill="#FFF98D"/>
</g>
<g clip-path="url(#clip6)">
<path d="M611.566 853.841L603.587 870.133C598.382 880.755 587.485 886.187 578.822 882.493L575.324 881.004L578.704 882.746C587.079 887.068 589.821 898.933 584.944 909.707L577.47 926.235L585.45 909.942C590.654 899.321 601.551 893.888 610.215 897.582L613.711 899.081L610.331 897.339C601.966 893.019 599.214 881.152 604.09 870.379L611.566 853.841Z" fill="#FFF98D"/>
<path d="M468.113 1026.51L466.853 1033.06C466.034 1037.33 462.253 1040.25 458.259 1039.68L456.653 1039.46L458.241 1039.78C462.187 1040.6 464.762 1044.61 464.092 1048.9L463.068 1055.5L464.328 1048.95C465.147 1044.67 468.928 1041.76 472.922 1042.33L474.528 1042.55L472.94 1042.23C468.994 1041.41 466.419 1037.39 467.089 1033.11L468.113 1026.51Z" fill="white"/>
<path d="M432.257 968.724L430.998 975.274C430.179 979.546 426.397 982.458 422.403 981.894L420.797 981.669L422.385 981.992C426.332 982.812 428.906 986.826 428.236 991.116L427.213 997.709L428.472 991.159C429.291 986.887 433.073 983.975 437.067 984.539L438.672 984.764L437.085 984.441C433.138 983.621 430.564 979.607 431.234 975.317L432.257 968.724Z" fill="white"/>
<path d="M520.098 1010.14C519.339 1014.52 522.015 1018.64 526.074 1019.35C530.133 1020.06 534.048 1017.08 534.809 1012.69C535.567 1008.3 532.891 1004.18 528.833 1003.47C524.772 1002.77 520.856 1005.75 520.098 1010.14Z" fill="#FFF98D"/>
</g>
<g clip-path="url(#clip7)">
<path d="M1803.77 1012.89L1807.75 1030.59C1810.34 1042.13 1805.24 1053.19 1796.17 1055.73L1792.51 1056.76L1796.23 1056C1805.47 1054.13 1815.04 1061.67 1817.98 1073.12L1822.49 1090.69L1818.52 1072.99C1815.93 1061.45 1821.03 1050.39 1830.1 1047.85L1833.76 1046.83L1830.03 1047.59C1820.81 1049.46 1811.23 1041.92 1808.29 1030.47L1803.77 1012.89Z" fill="#FFF98D"/>
<path d="M1799.97 1237.34L1803.08 1243.24C1805.12 1247.09 1803.99 1251.72 1800.53 1253.78L1799.13 1254.61L1800.57 1253.87C1804.16 1252.04 1808.68 1253.56 1810.85 1257.33L1814.17 1263.11L1811.06 1257.21C1809.02 1253.37 1810.15 1248.73 1813.62 1246.67L1815.01 1245.84L1813.57 1246.58C1809.98 1248.41 1805.46 1246.89 1803.3 1243.13L1799.97 1237.34Z" fill="white"/>
<path d="M1735.83 1214.72L1738.95 1220.62C1740.99 1224.46 1739.86 1229.1 1736.39 1231.16L1735 1231.99L1736.44 1231.25C1740.03 1229.42 1744.55 1230.93 1746.71 1234.7L1750.04 1240.48L1746.92 1234.59C1744.89 1230.74 1746.02 1226.1 1749.48 1224.04L1750.88 1223.21L1749.44 1223.96C1745.85 1225.79 1741.33 1224.27 1739.16 1220.5L1735.83 1214.72Z" fill="white"/>
<path d="M1830.26 1192.03C1832.41 1195.93 1837.08 1197.47 1840.69 1195.48C1844.3 1193.5 1845.49 1188.72 1843.33 1184.82C1841.18 1180.92 1836.51 1179.38 1832.9 1181.37C1829.3 1183.37 1828.11 1188.14 1830.26 1192.03Z" fill="#FFF98D"/>
</g>
<path d="M438.681 489.015L434.024 506.549C430.986 517.981 421.355 525.43 412.138 523.492L408.417 522.712L412.072 523.763C421.127 526.373 426.126 537.477 423.439 548.994L419.324 566.66L423.981 549.127C427.019 537.695 436.65 530.246 445.867 532.184L449.588 532.974L445.933 531.923C436.888 529.313 431.879 518.209 434.566 506.692L438.681 489.015Z" fill="#FFF98D"/>
<path opacity="0.8" d="M1022.31 321.881L1014.13 318.168C1008.8 315.749 1002.51 317.935 999.833 323.14L998.753 325.234L999.708 323.076C1002.07 317.724 999.824 311.456 994.596 308.83L986.573 304.803L994.752 308.516C1000.08 310.935 1006.36 308.749 1009.05 303.544L1010.13 301.45L1009.17 303.608C1006.81 308.96 1009.05 315.228 1014.28 317.854L1022.31 321.881Z" fill="#FFF98D"/>
<path opacity="0.8" d="M954.881 388.974L950.737 387.094C948.043 385.866 944.852 386.971 943.495 389.61L942.945 390.669L943.435 389.573C944.635 386.867 943.495 383.683 940.844 382.354L936.779 380.312L940.923 382.192C943.618 383.42 946.809 382.315 948.165 379.676L948.716 378.617L948.226 379.713C947.026 382.419 948.166 385.603 950.817 386.932L954.881 388.974Z" fill="white"/>
<path opacity="0.8" d="M891.112 403.653L884.093 400.457C879.511 398.379 874.108 400.257 871.808 404.722L870.885 406.525L871.711 404.67C873.743 400.068 871.813 394.687 867.319 392.429L860.423 388.97L867.446 392.157C872.028 394.235 877.43 392.357 879.731 387.892L880.653 386.089L879.828 387.944C877.796 392.546 879.726 397.927 884.22 400.186L891.112 403.653Z" fill="#FFF98D"/>
<path opacity="0.8" d="M929.867 387.991C928.622 387.393 928.094 385.906 928.682 384.657C929.28 383.411 930.767 382.883 932.025 383.476C933.271 384.073 933.799 385.56 933.206 386.819C932.609 388.064 931.122 388.592 929.867 387.991Z" fill="white"/>
<path opacity="0.8" d="M891.177 449.092C888.161 447.651 886.879 444.036 888.324 441.01C889.765 437.994 893.38 436.712 896.406 438.157C899.422 439.598 900.704 443.213 899.259 446.239C897.818 449.255 894.193 450.533 891.177 449.092Z" fill="#FFF98D"/>
<path opacity="0.8" d="M911.961 275.535C911.338 275.236 911.07 274.49 911.369 273.868C911.667 273.245 912.413 272.976 913.036 273.275C913.658 273.574 913.927 274.319 913.628 274.942C913.335 275.578 912.584 275.833 911.961 275.535Z" fill="white"/>
<path opacity="0.8" d="M881.207 412.859C880.585 412.56 880.316 411.814 880.615 411.192C880.913 410.569 881.659 410.301 882.282 410.599C882.904 410.898 883.173 411.644 882.874 412.266C882.575 412.889 881.83 413.158 881.207 412.859Z" fill="white"/>
<path opacity="0.8" d="M965.945 331.593C965.323 331.294 965.054 330.549 965.353 329.926C965.652 329.304 966.397 329.035 967.02 329.334C967.643 329.632 967.911 330.378 967.613 331.001C967.323 331.627 966.568 331.892 965.945 331.593Z" fill="white"/>
<path opacity="0.8" d="M838.106 457.98C837.483 457.681 837.214 456.936 837.513 456.313C837.812 455.69 838.557 455.422 839.18 455.72C839.803 456.019 840.071 456.765 839.773 457.387C839.474 458.01 838.728 458.279 838.106 457.98Z" fill="white"/>
<path opacity="0.8" d="M967.82 432.41C967.198 432.111 966.929 431.365 967.228 430.743C967.527 430.12 968.272 429.851 968.895 430.15C969.518 430.449 969.786 431.194 969.488 431.817C969.189 432.44 968.443 432.708 967.82 432.41Z" fill="white"/>
<path opacity="0.8" d="M1016.61 457.117C1015.99 456.818 1015.72 456.072 1016.02 455.45C1016.32 454.827 1017.06 454.558 1017.68 454.857C1018.31 455.156 1018.58 455.901 1018.28 456.524C1017.98 457.147 1017.23 457.415 1016.61 457.117Z" fill="white"/>
<path opacity="0.8" d="M994.629 382.765C994.006 382.466 993.738 381.721 994.037 381.098C994.335 380.475 995.081 380.207 995.704 380.506C996.326 380.804 996.595 381.55 996.296 382.173C995.993 382.804 995.252 383.064 994.629 382.765Z" fill="white"/>
<path opacity="0.8" d="M1491.03 198.546L1497.81 209.55C1502.23 216.719 1511.49 219.157 1518.87 215.096L1521.85 213.463L1518.97 215.273C1511.85 219.765 1509.5 229.054 1513.63 236.39L1519.98 247.644L1513.19 236.64C1508.78 229.472 1499.52 227.033 1492.13 231.094L1489.16 232.727L1492.03 230.917C1499.16 226.426 1501.51 217.136 1497.37 209.8L1491.03 198.546Z" fill="#FFF98D"/>
<path opacity="0.8" d="M1625.43 172.594L1628.87 178.169C1631.1 181.799 1635.8 183.043 1639.54 180.981L1641.05 180.159L1639.58 181.074C1635.97 183.341 1634.78 188.059 1636.88 191.776L1640.09 197.479L1636.65 191.905C1634.42 188.274 1629.72 187.03 1625.98 189.092L1624.47 189.914L1625.94 188.999C1629.55 186.732 1630.74 182.014 1628.65 178.298L1625.43 172.594Z" fill="white"/>
<path opacity="0.8" d="M1713.38 206.294L1719.19 215.748C1722.99 221.91 1730.95 224.008 1737.29 220.524L1739.83 219.113L1737.36 220.665C1731.24 224.527 1729.22 232.504 1732.77 238.81L1738.23 248.479L1732.4 239.033C1728.6 232.871 1720.64 230.773 1714.3 234.257L1711.76 235.668L1714.23 234.116C1720.35 230.254 1722.37 222.277 1718.82 215.971L1713.38 206.294Z" fill="#FFF98D"/>
<path opacity="0.8" d="M1654.51 193.865C1655.52 195.579 1654.96 197.779 1653.25 198.798C1651.54 199.805 1649.34 199.241 1648.31 197.522C1647.3 195.808 1647.87 193.609 1649.59 192.582C1651.3 191.574 1653.5 192.139 1654.51 193.865Z" fill="white"/>
<path opacity="0.8" d="M1749.8 151.983C1752.24 156.127 1750.87 161.474 1746.71 163.926C1742.57 166.369 1737.22 164.997 1734.77 160.841C1732.33 156.696 1733.7 151.35 1737.86 148.898C1742 146.455 1747.35 147.839 1749.8 151.983Z" fill="#FFF98D"/>
<path opacity="0.8" d="M1585.56 342.529C1586.06 343.386 1585.78 344.492 1584.93 344.995C1584.07 345.499 1582.96 345.221 1582.46 344.364C1581.96 343.507 1582.24 342.401 1583.09 341.897C1583.95 341.374 1585.06 341.672 1585.56 342.529Z" fill="white"/>
<path opacity="0.8" d="M1732.6 203.259C1733.1 204.116 1732.82 205.222 1731.97 205.726C1731.11 206.229 1730 205.951 1729.5 205.094C1729 204.237 1729.27 203.131 1730.13 202.628C1730.99 202.124 1732.09 202.402 1732.6 203.259Z" fill="white"/>
<path opacity="0.8" d="M1566.13 232.226C1566.63 233.083 1566.35 234.189 1565.5 234.692C1564.64 235.196 1563.53 234.917 1563.03 234.06C1562.53 233.203 1562.81 232.097 1563.66 231.594C1564.51 231.078 1565.63 231.369 1566.13 232.226Z" fill="white"/>
<path opacity="0.8" d="M1820.31 184.005C1820.82 184.862 1820.54 185.968 1819.68 186.471C1818.82 186.975 1817.72 186.697 1817.21 185.84C1816.71 184.983 1816.99 183.877 1817.85 183.373C1818.7 182.87 1819.81 183.148 1820.31 184.005Z" fill="white"/>
<path opacity="0.8" d="M1644.88 110.334C1645.38 111.191 1645.1 112.297 1644.24 112.801C1643.39 113.304 1642.28 113.026 1641.78 112.169C1641.27 111.312 1641.55 110.206 1642.41 109.703C1643.27 109.199 1644.37 109.477 1644.88 110.334Z" fill="white"/>
<path opacity="0.8" d="M1606.47 41.642C1606.97 42.499 1606.69 43.605 1605.84 44.1086C1604.98 44.6121 1603.87 44.3339 1603.37 43.4769C1602.87 42.62 1603.15 41.5139 1604 41.0104C1604.86 40.5069 1605.97 40.7851 1606.47 41.642Z" fill="white"/>
<path opacity="0.8" d="M1572.99 148.078C1573.49 148.935 1573.21 150.041 1572.36 150.544C1571.5 151.048 1570.39 150.769 1569.89 149.912C1569.39 149.056 1569.66 147.949 1570.52 147.446C1571.39 146.935 1572.48 147.221 1572.99 148.078Z" fill="white"/>
<g opacity="0.5">
<path opacity="0.8" d="M1028.43 1179.68L1027.94 1192.6C1027.62 1201.02 1033.95 1208.2 1042.34 1208.94L1045.72 1209.24L1042.33 1209.14C1033.91 1208.9 1026.78 1215.31 1026.13 1223.7L1025.13 1236.58L1025.63 1223.67C1025.95 1215.25 1019.62 1208.07 1011.22 1207.33L1007.84 1207.03L1011.24 1207.13C1019.66 1207.36 1026.78 1200.96 1027.44 1192.56L1028.43 1179.68Z" fill="#FFF98D"/>
<path opacity="0.8" d="M1154.51 1232.99L1154.26 1239.54C1154.1 1243.79 1157.3 1247.44 1161.56 1247.82L1163.27 1247.97L1161.54 1247.92C1157.28 1247.79 1153.66 1251.04 1153.33 1255.3L1152.83 1261.82L1153.08 1255.28C1153.24 1251.02 1150.04 1247.37 1145.78 1247L1144.07 1246.84L1145.8 1246.9C1150.06 1247.03 1153.68 1243.77 1154.01 1239.52L1154.51 1232.99Z" fill="white"/>
<path opacity="0.8" d="M1208.78 1309.96L1208.34 1321.05C1208.07 1328.29 1213.51 1334.47 1220.71 1335.1L1223.62 1335.35L1220.7 1335.26C1213.46 1335.05 1207.34 1340.56 1206.78 1347.77L1205.92 1358.84L1206.35 1347.75C1206.62 1340.51 1201.18 1334.34 1193.98 1333.7L1191.07 1333.46L1194 1333.55C1201.23 1333.75 1207.35 1328.25 1207.91 1321.03L1208.78 1309.96Z" fill="#FFF98D"/>
<path opacity="0.8" d="M1166.82 1266.86C1166.7 1268.84 1165.01 1270.35 1163.02 1270.25C1161.04 1270.13 1159.53 1268.44 1159.63 1266.44C1159.75 1264.45 1161.44 1262.94 1163.44 1263.05C1165.43 1263.16 1166.94 1264.86 1166.82 1266.86Z" fill="white"/>
<path opacity="0.8" d="M1269.28 1285.15C1269 1289.95 1264.88 1293.62 1260.07 1293.35C1255.26 1293.07 1251.59 1288.95 1251.87 1284.13C1252.14 1279.33 1256.26 1275.65 1261.08 1275.93C1265.88 1276.21 1269.56 1280.34 1269.28 1285.15Z" fill="#FFF98D"/>
<path opacity="0.8" d="M1072.05 1249.49C1071.99 1250.48 1071.14 1251.24 1070.15 1251.18C1069.15 1251.12 1068.39 1250.28 1068.45 1249.28C1068.51 1248.29 1069.36 1247.53 1070.35 1247.59C1071.34 1247.63 1072.1 1248.49 1072.05 1249.49Z" fill="white"/>
<path opacity="0.8" d="M1205.34 1192.12C1205.28 1193.11 1204.44 1193.87 1203.44 1193.81C1202.45 1193.75 1201.69 1192.91 1201.75 1191.91C1201.81 1190.92 1202.65 1190.16 1203.65 1190.22C1204.64 1190.28 1205.4 1191.12 1205.34 1192.12Z" fill="white"/>
<path opacity="0.8" d="M1211.71 1113.67C1211.65 1114.66 1210.8 1115.43 1209.81 1115.37C1208.82 1115.31 1208.05 1114.46 1208.11 1113.47C1208.17 1112.48 1209.02 1111.71 1210.01 1111.77C1211 1111.83 1211.76 1112.68 1211.71 1113.67Z" fill="white"/>
<path opacity="0.8" d="M1124.61 1183.42C1124.55 1184.41 1123.71 1185.17 1122.71 1185.12C1121.72 1185.06 1120.96 1184.21 1121.02 1183.22C1121.08 1182.23 1121.92 1181.46 1122.92 1181.52C1123.92 1181.58 1124.67 1182.43 1124.61 1183.42Z" fill="white"/>
</g>
<path d="M1174.79 278.444L1157.26 273.787C1145.83 270.749 1138.38 261.117 1140.32 251.901L1141.1 248.18L1140.04 251.834C1137.43 260.89 1126.33 265.888 1114.81 263.202L1097.15 259.087L1114.68 263.743C1126.11 266.781 1133.56 276.413 1131.62 285.63L1130.83 289.35L1131.88 285.696C1134.49 276.65 1145.6 271.642 1157.12 274.329L1174.79 278.444Z" fill="#FFF98D"/>
</g>
<defs>
<linearGradient id="paint0_linear" x1="1920" y1="678.219" x2="0.494923" y2="715.119" gradientUnits="userSpaceOnUse">
<stop offset="0.00182862" stop-color="#E41986"/>
<stop offset="0.500496" stop-color="#EF5958"/>
<stop offset="1" stop-color="#FC9D26"/>
</linearGradient>
<clipPath id="clip0">
<rect width="1920" height="1312.97" fill="white"/>
</clipPath>
<clipPath id="clip1">
<rect width="225.26" height="174.73" fill="white" transform="translate(153.859 94) rotate(61.7091)"/>
</clipPath>
<clipPath id="clip2">
<rect width="225.26" height="174.73" fill="white" transform="translate(171.859 472) rotate(61.7091)"/>
</clipPath>
<clipPath id="clip3">
<rect width="225.26" height="174.73" fill="white" transform="translate(303.395 1099.21) rotate(127.832)"/>
</clipPath>
<clipPath id="clip4">
<rect width="225.26" height="174.73" fill="white" transform="translate(280.129 1272.42) rotate(-143.523)"/>
</clipPath>
<clipPath id="clip5">
<rect width="225.26" height="174.73" fill="white" transform="translate(609.531 1054.3) rotate(147.068)"/>
</clipPath>
<clipPath id="clip6">
<rect width="225.26" height="174.73" fill="white" transform="translate(621.715 855.714) rotate(100.457)"/>
</clipPath>
<clipPath id="clip7">
<rect width="225.26" height="174.73" fill="white" transform="translate(1812.86 1008) rotate(61.7091)"/>
</clipPath>
</defs>
</svg>
