<svg width="1920" height="1313" viewBox="0 0 1920 1313" fill="none" xmlns="http://www.w3.org/2000/svg">
<g clip-path="url(#clip0)">
<rect width="1920" height="1312.97" fill="white"/>
<path d="M105.638 73.5161C62.851 86.76 0 118.253 0 118.253V1295.49C0 1295.49 163.308 1317.74 276.36 1312.08C475.326 1302.1 572.825 1187.22 772.005 1190.93C943.448 1194.13 1027.14 1299.83 1198.56 1295.49C1335.66 1292.02 1403.26 1202.56 1540.01 1213.05C1655.55 1221.92 1703.38 1299.85 1819.19 1295.49C1858.79 1294 1920 1253.68 1920 1253.68V28.7791C1920 28.7791 1835.22 4.33341 1779.32 0.630007C1625.48 -9.56177 1556.1 107.116 1402.33 118.253C1243.38 129.765 1158.59 37.2602 999.802 50.8963C849.244 63.8258 783.023 157.442 632.824 174.049C424.524 197.079 305.896 11.5288 105.638 73.5161Z" fill="url(#paint0_linear)"/>
</g>
<defs>
<linearGradient id="paint0_linear" x1="1920" y1="678.219" x2="0.494923" y2="715.119" gradientUnits="userSpaceOnUse">
<stop offset="0.00182862" stop-color="#E41986"/>
<stop offset="0.500496" stop-color="#EF5958"/>
<stop offset="1" stop-color="#FC9D26"/>
</linearGradient>
<clipPath id="clip0">
<rect width="1920" height="1312.97" fill="white"/>
</clipPath>
</defs>
</svg>
